<?xml version="1.0" standalone="no"?>
<!DOCTYPE svg PUBLIC "-//W3C//DTD SVG 20010904//EN"
 "http://www.w3.org/TR/2001/REC-SVG-20010904/DTD/svg10.dtd">
<svg version="1.0" xmlns="http://www.w3.org/2000/svg"
 width="1024.000000pt" height="1024.000000pt" viewBox="0 0 1024.000000 1024.000000"
 preserveAspectRatio="xMidYMid meet">

<g transform="translate(0.000000,1024.000000) scale(0.100000,-0.100000)"
fill="#000000" stroke="none">
<path d="M1062 7810 c0 -14 2 -19 5 -12 2 6 2 18 0 25 -3 6 -5 1 -5 -13z"/>
<path d="M4873 7813 c-46 -2 -83 -7 -83 -12 0 -4 -54 -13 -120 -20 -66 -7
-123 -17 -126 -22 -3 -5 -16 -9 -30 -9 -32 0 -104 -23 -104 -33 0 -5 -4 -6 -9
-3 -9 6 -185 -46 -238 -70 -17 -8 -38 -14 -47 -14 -9 0 -16 -4 -16 -10 0 -5
-4 -10 -10 -10 -17 0 -90 -34 -90 -42 0 -5 -7 -8 -17 -8 -15 0 -122 -48 -133
-60 -3 -3 -21 -13 -40 -22 -51 -25 -91 -50 -119 -75 -14 -13 -30 -23 -36 -23
-6 0 -42 -22 -80 -50 -129 -92 -185 -137 -280 -228 -155 -149 -328 -362 -439
-542 -32 -52 -66 -106 -75 -120 -19 -27 -111 -217 -111 -228 0 -4 -6 -19 -14
-34 -16 -30 -74 -198 -101 -291 -37 -130 -68 -343 -84 -577 -9 -133 4 -497 19
-515 4 -5 10 -35 13 -65 2 -30 17 -107 32 -170 15 -63 29 -125 32 -138 3 -12
9 -25 14 -28 5 -3 9 -14 9 -25 0 -10 4 -27 9 -37 11 -20 23 -53 26 -67 1 -11
8 -27 36 -92 11 -23 19 -46 19 -52 0 -15 141 -286 151 -289 5 -2 9 -8 9 -13 0
-15 131 -209 141 -209 5 0 8 -4 6 -8 -5 -18 92 -130 258 -297 119 -120 223
-215 234 -215 4 0 18 -11 31 -25 13 -14 29 -25 36 -25 7 0 14 -4 16 -8 7 -18
216 -148 231 -144 4 1 7 -2 7 -6 0 -11 285 -152 338 -167 12 -3 22 -11 22 -16
0 -6 4 -8 10 -4 5 3 17 1 27 -4 17 -10 152 -59 183 -67 8 -2 33 -8 55 -15 38
-10 126 -30 225 -49 25 -5 65 -9 91 -9 25 -1 50 -6 56 -12 7 -7 96 -11 254
-12 236 -1 411 12 589 43 36 6 74 12 85 14 11 1 27 5 35 9 8 4 28 9 43 11 16
3 34 9 40 14 10 7 144 49 180 56 7 1 28 9 47 18 19 8 64 28 100 43 83 34 233
107 240 116 3 3 15 9 27 13 13 4 29 13 36 19 7 7 34 23 60 37 27 14 57 33 67
43 11 9 22 17 25 17 10 0 218 162 269 209 247 229 464 491 560 675 14 27 30
54 34 60 5 6 23 45 41 86 18 41 40 91 49 110 9 19 17 37 17 40 1 3 7 19 14 35
7 17 20 53 28 80 8 28 21 59 28 71 7 11 16 37 19 57 3 20 12 55 21 79 8 24 15
53 15 65 0 12 4 24 9 27 5 4 8 14 6 24 -1 9 4 32 11 51 8 18 15 61 16 95 2 33
7 64 13 68 15 11 12 602 -4 703 -7 44 -16 105 -21 135 -7 51 -22 114 -65 280
-9 36 -30 101 -48 145 -17 44 -32 82 -32 85 -1 17 -95 218 -133 285 -53 94
-134 217 -171 261 -14 17 -39 48 -56 70 -16 21 -44 54 -60 74 -17 19 -47 55
-67 80 -74 92 -201 213 -328 313 -47 37 -92 74 -101 82 -9 8 -20 15 -26 15 -5
0 -22 11 -37 25 -15 14 -30 25 -34 25 -4 0 -30 16 -59 35 -107 72 -239 138
-418 210 -11 5 -22 9 -25 10 -3 1 -17 6 -31 12 -14 6 -45 17 -70 24 -24 7 -48
16 -54 20 -5 4 -28 10 -50 14 -22 4 -44 11 -50 15 -5 4 -17 8 -25 9 -20 1
-155 29 -155 31 0 6 -173 29 -290 40 -103 9 -315 10 -502 3z m545 -20 c-16 -2
-40 -2 -55 0 -16 2 -3 4 27 4 30 0 43 -2 28 -4z m52 -103 c3 -4 28 -10 55 -13
69 -8 179 -31 245 -52 30 -9 91 -28 135 -42 44 -14 105 -35 135 -48 30 -13 82
-34 115 -46 33 -13 88 -38 123 -56 34 -18 62 -30 62 -27 0 3 6 -1 14 -9 8 -8
52 -36 98 -63 215 -125 435 -311 609 -515 99 -116 158 -193 199 -259 19 -30
37 -57 41 -60 9 -6 149 -282 149 -292 0 -20 -20 -5 -26 19 -4 15 -13 34 -21
41 -7 8 -11 18 -8 23 4 5 1 9 -4 9 -6 0 -11 7 -11 15 0 8 -7 15 -16 15 -11 0
-14 5 -10 16 4 11 -1 22 -14 31 -11 8 -20 23 -20 33 0 10 -4 21 -9 24 -23 14
12 -76 44 -113 11 -13 14 -21 8 -17 -7 4 -13 3 -13 -3 0 -5 8 -12 18 -14 16
-4 16 -5 0 -6 -11 -1 -23 12 -32 34 -8 19 -20 35 -26 35 -6 0 -9 4 -5 9 3 5
-2 17 -11 25 -8 9 -12 16 -7 17 4 0 -1 4 -12 8 -11 4 -20 17 -20 27 0 11 -6
18 -14 16 -8 -2 -11 3 -8 12 3 8 -1 20 -9 26 -8 7 -14 17 -14 23 0 9 -76 127
-89 137 -4 3 -47 52 -96 110 -49 58 -127 140 -172 184 -87 83 -278 237 -327
263 -16 8 -51 31 -78 49 -26 19 -50 34 -53 34 -3 0 -22 11 -43 23 -35 23 -143
67 -262 109 -139 48 -197 66 -225 71 -16 3 -43 8 -60 11 -23 5 -18 0 21 -21
49 -27 109 -70 143 -104 9 -8 34 -29 56 -44 22 -16 48 -37 58 -47 18 -18 23
-38 9 -38 -4 0 -13 -9 -20 -20 -11 -17 -9 -24 8 -43 l21 -22 -28 -3 c-15 -2
-29 1 -31 7 -2 6 -8 9 -13 6 -11 -8 35 -55 54 -55 17 0 37 -42 37 -80 0 -32
19 -80 31 -80 5 0 12 -18 15 -40 4 -22 10 -40 15 -40 5 0 9 -7 9 -15 0 -9 9
-33 20 -55 11 -22 20 -51 20 -65 0 -14 4 -25 10 -25 5 0 6 -7 3 -17 -7 -19 -8
-19 87 43 36 24 78 55 94 69 16 14 30 25 31 25 5 0 63 -101 95 -165 19 -39 38
-72 41 -75 3 -3 9 -18 13 -35 4 -16 13 -33 19 -38 8 -5 5 -7 -8 -5 -17 3 -21
-5 -27 -62 -4 -36 -12 -74 -17 -85 -5 -11 -15 -37 -21 -59 -7 -21 -30 -69 -51
-107 -22 -38 -39 -70 -39 -72 0 -9 -89 -106 -155 -170 -38 -37 -69 -71 -68
-77 2 -5 -3 -7 -11 -4 -8 3 -17 1 -21 -5 -3 -6 -1 -11 4 -11 6 0 11 -7 11 -15
0 -8 -4 -15 -10 -15 -5 0 -10 -9 -10 -20 0 -13 -7 -20 -19 -20 -27 0 -38 -60
-14 -77 10 -8 12 -13 4 -13 -7 0 -9 -5 -6 -10 3 -6 -6 -15 -21 -20 -15 -6 -49
-26 -75 -45 -25 -19 -52 -35 -58 -35 -6 0 -11 -5 -11 -12 0 -6 -12 -36 -26
-66 -14 -30 -28 -78 -31 -108 -3 -29 -9 -52 -12 -50 -4 3 -6 -8 -5 -22 1 -26
-21 -82 -32 -82 -3 0 -2 5 1 10 3 6 1 10 -6 10 -6 0 -9 -8 -6 -20 5 -19 -14
-45 -25 -34 -3 3 -9 0 -14 -7 -4 -8 -3 -10 4 -5 7 4 12 5 12 2 0 -9 -90 -67
-90 -59 0 4 -5 1 -10 -7 -9 -13 -12 -13 -25 4 -15 19 -35 14 -35 -10 0 -8 -4
-14 -10 -14 -5 0 -10 16 -10 35 0 34 -1 35 -40 35 -34 0 -40 3 -40 22 0 12 10
33 23 46 20 22 18 22 -19 -4 -23 -16 -40 -32 -37 -36 2 -5 -7 -8 -21 -8 -17 0
-33 -10 -48 -30 -12 -16 -29 -30 -37 -30 -9 0 -23 -5 -31 -10 -13 -9 -13 -11
0 -20 8 -5 30 -10 48 -10 26 0 32 -4 32 -21 0 -17 -4 -20 -23 -16 -38 10 -51
-7 -48 -60 0 -12 9 -23 19 -26 12 -3 8 -6 -13 -11 -16 -4 -44 -14 -62 -22 -40
-18 -63 -18 -63 1 0 8 6 15 14 15 8 0 18 5 21 10 4 6 -10 10 -34 10 -30 0 -41
-4 -41 -15 0 -11 -11 -15 -40 -15 -29 0 -40 4 -40 15 0 8 -9 15 -20 15 -11 0
-20 -7 -20 -15 0 -17 -18 -19 -54 -5 -18 6 -35 5 -58 -4 -18 -8 -45 -12 -61
-9 -16 3 -27 1 -27 -6 0 -6 -11 -11 -25 -11 -14 0 -28 -6 -31 -13 -3 -9 -16
-12 -34 -9 -23 3 -30 0 -30 -12 0 -9 -1 -16 -2 -16 -2 0 -50 -3 -108 -6 -58
-3 -111 -7 -117 -9 -21 -7 -15 -25 8 -25 11 0 17 -4 14 -10 -7 -11 -98 -14
-108 -3 -4 3 1 12 11 19 15 12 9 13 -40 14 -31 0 -65 2 -75 5 -11 3 -9 1 5 -6
12 -7 22 -18 22 -26 0 -7 11 -13 25 -13 14 0 25 -4 25 -10 0 -5 15 -7 33 -5
l32 5 -29 -10 c-20 -6 -51 -5 -100 5 -67 12 -164 48 -176 63 -3 4 -14 12 -25
18 -11 6 -22 22 -23 35 -2 13 -8 29 -14 34 -7 7 -9 3 -5 -13 5 -20 3 -22 -11
-10 -35 27 -89 100 -63 84 21 -13 11 10 -14 34 -14 13 -25 31 -25 41 0 9 -7
22 -15 29 -8 7 -15 10 -15 6 0 -3 -9 3 -21 15 -28 28 -166 92 -181 83 -6 -4
-8 -3 -5 3 3 5 -22 15 -59 22 -35 7 -66 17 -69 21 -2 4 -17 6 -32 4 -36 -5
-85 5 -78 15 2 5 -22 11 -54 14 -32 4 -83 14 -112 24 -46 16 -59 26 -95 78
-23 33 -39 64 -36 70 3 5 -3 3 -13 -5 -17 -14 -18 -14 -6 7 9 19 8 29 -6 55
-14 27 -18 30 -21 14 -2 -10 1 -22 8 -26 7 -4 10 -15 8 -23 -5 -25 -30 -4 -31
25 -1 17 -7 24 -15 20 -7 -2 -28 9 -45 26 -38 35 -88 62 -117 62 -11 0 -20 5
-20 10 0 6 -11 8 -25 4 -15 -4 -25 -2 -25 5 0 6 -9 11 -19 11 -10 0 -21 6 -24
13 -3 9 3 12 22 9 17 -2 32 3 41 14 13 15 13 16 -5 11 -11 -3 -37 -8 -59 -12
-21 -3 -62 -17 -90 -29 -55 -25 -139 -93 -130 -107 3 -5 1 -9 -4 -9 -19 0 -46
-165 -47 -282 0 -52 3 -64 13 -56 6 6 12 17 12 25 0 9 6 13 15 9 17 -6 20 5 4
21 -8 8 -7 13 2 18 8 6 10 4 4 -5 -5 -8 -4 -11 3 -6 18 11 3 35 -19 31 -11 -2
-17 0 -14 5 3 5 17 9 30 8 13 -1 21 -6 19 -10 -3 -4 2 -8 10 -8 20 0 30 17 14
23 -8 3 -2 9 14 15 14 6 31 19 36 28 13 23 117 64 161 64 45 -1 106 -22 133
-47 23 -20 96 -113 115 -147 7 -11 13 -18 13 -15 0 3 19 -12 43 -35 43 -41
105 -81 120 -78 4 1 7 -2 7 -7 0 -5 10 -11 23 -14 12 -2 67 -17 122 -32 55
-15 125 -33 155 -40 124 -27 208 -72 273 -145 93 -104 170 -168 248 -207 127
-62 181 -74 373 -80 182 -6 252 1 466 44 69 13 133 25 143 26 9 1 17 5 17 9 0
4 11 8 24 8 14 0 28 5 31 10 3 6 19 10 35 10 15 0 30 3 32 8 2 4 26 15 53 24
28 9 75 26 105 38 30 12 70 27 88 34 17 6 32 14 32 18 0 5 7 8 15 8 8 0 31 9
52 21 136 75 213 123 248 153 43 38 53 39 35 7 -9 -19 -8 -21 15 -21 18 0 33
12 55 42 16 22 30 47 30 53 0 7 7 15 15 19 8 3 15 11 15 18 0 35 97 118 138
118 12 0 22 5 22 11 0 8 19 10 63 6 34 -3 80 -2 102 3 72 16 199 40 235 45 65
9 90 16 96 27 4 7 2 8 -4 4 -7 -4 -12 -3 -12 1 0 8 100 36 107 30 9 -10 23
-227 21 -326 l-3 -114 -160 -99 c-88 -55 -162 -103 -165 -108 -3 -4 -20 -15
-39 -25 -23 -12 -30 -19 -21 -25 17 -11 -4 -22 -26 -13 -13 5 -16 3 -11 -10 7
-19 -9 -33 -17 -15 -4 7 -4 3 -2 -9 3 -16 -2 -23 -16 -25 -16 -2 -21 -11 -23
-40 -2 -41 -21 -72 -38 -61 -5 3 -7 1 -4 -4 9 -14 -129 -202 -206 -282 -92
-94 -259 -241 -274 -241 -7 0 -13 -4 -13 -8 0 -5 -18 -17 -40 -28 -22 -10 -40
-22 -40 -26 0 -4 -22 -17 -49 -30 -27 -12 -47 -26 -45 -30 3 -5 2 -7 -3 -6
-14 5 -73 -24 -67 -33 3 -5 -3 -9 -13 -9 -10 0 -36 -9 -57 -21 -21 -11 -41
-18 -44 -15 -3 3 -10 2 -16 -2 -18 -14 -123 -49 -231 -77 -126 -33 -233 -76
-291 -116 -45 -31 -47 -31 -167 -30 -138 1 -319 20 -328 33 -3 5 -31 12 -62
15 -39 4 -57 10 -57 19 0 8 -9 14 -19 14 -38 0 -326 61 -358 75 -17 8 -40 15
-51 15 -33 0 -52 11 -52 30 0 15 -11 20 -65 25 -54 6 -65 10 -61 24 17 55 16
68 -2 89 -11 12 -27 22 -36 22 -9 0 -16 5 -16 11 0 6 -7 9 -15 5 -8 -3 -22 -3
-30 0 -13 5 -12 9 6 25 21 18 21 18 -14 12 -22 -3 -37 -1 -42 7 -5 9 -1 10 16
5 13 -4 21 -4 17 0 -5 5 -21 9 -38 10 -25 2 -28 0 -17 -13 6 -9 -8 -1 -32 16
-24 18 -54 32 -67 32 -13 0 -25 4 -29 9 -3 5 -22 15 -43 21 -70 21 -357 160
-392 189 -14 12 -30 25 -37 31 -7 5 -15 10 -18 10 -10 0 -115 80 -115 88 -1 4
-12 20 -25 36 l-24 30 8 -36 c5 -20 12 -41 15 -47 4 -6 9 -23 12 -37 3 -14 11
-36 18 -47 7 -12 22 -46 32 -74 10 -29 22 -53 26 -53 4 0 8 -7 8 -16 0 -14 47
-111 60 -124 3 -3 15 -25 28 -50 40 -79 57 -106 92 -149 11 -13 22 -32 25 -42
4 -11 11 -19 17 -19 6 0 9 -3 5 -6 -3 -3 2 -14 11 -24 10 -9 37 -43 62 -75 71
-92 177 -200 285 -294 55 -47 111 -96 125 -108 40 -35 183 -133 194 -133 5 0
17 -6 25 -14 9 -7 41 -26 71 -42 30 -16 57 -32 60 -36 6 -7 50 -25 64 -26 5 0
12 -4 15 -9 20 -28 413 -163 521 -179 25 -4 50 -10 55 -14 13 -10 132 -30 174
-30 19 0 30 -4 26 -10 -4 -6 6 -10 24 -10 16 0 31 -5 33 -11 6 -17 779 18 797
36 2 3 -13 5 -35 6 -30 0 -34 2 -19 9 38 15 124 32 135 25 5 -3 20 1 32 9 12
9 33 16 45 16 13 0 23 4 23 10 0 5 7 7 15 4 8 -4 15 -1 15 5 0 6 11 11 24 11
14 0 27 4 30 9 3 4 32 16 65 25 33 9 73 23 88 31 15 8 33 15 39 15 6 0 17 7
24 15 7 8 16 12 21 9 5 -3 9 0 9 7 0 7 3 10 6 6 4 -3 19 0 34 8 15 8 30 11 34
8 3 -4 6 -1 6 6 0 10 62 44 95 52 6 1 16 9 23 16 7 7 20 13 28 13 8 0 14 6 14
13 0 8 3 7 10 -3 8 -13 11 -13 22 -1 11 11 11 13 -1 6 -9 -5 -12 -3 -9 6 3 8
11 13 17 12 6 -2 11 2 11 8 0 6 7 9 15 5 9 -3 39 12 74 39 33 25 63 45 68 45
4 0 37 27 73 60 35 33 70 60 76 60 7 0 29 19 50 41 79 84 162 166 232 228 40
36 72 69 72 73 0 11 82 132 93 136 4 2 7 10 7 17 0 7 6 15 13 18 14 5 48 70
103 197 1 3 5 15 9 28 4 12 11 22 16 22 5 0 8 3 7 8 -4 12 45 102 55 102 5 0
3 8 -4 17 -8 9 -9 14 -3 10 12 -7 49 87 39 103 -3 5 0 10 8 10 10 0 17 17 22
55 3 30 10 55 15 55 5 0 13 21 20 48 56 240 57 247 76 533 15 229 15 255 0
370 -9 68 -19 144 -22 169 -2 25 -10 77 -17 115 -6 39 -11 78 -9 88 1 9 -2 17
-7 17 -4 0 -14 26 -21 58 -7 31 -17 62 -23 69 -5 7 -6 16 -3 21 3 5 -1 19 -8
33 -7 13 -11 30 -8 37 2 7 -2 20 -9 28 -10 13 -10 17 2 25 11 7 11 9 -3 9 -10
0 -18 6 -18 13 0 8 -6 27 -14 43 -23 47 -30 77 -17 73 15 -5 87 -171 101 -235
7 -27 15 -58 20 -69 14 -34 20 -57 26 -94 3 -20 12 -63 20 -96 7 -33 14 -74
14 -91 0 -16 4 -34 9 -40 23 -24 37 -438 21 -599 -7 -66 -14 -148 -17 -182 -3
-35 -9 -63 -14 -63 -5 0 -9 -20 -9 -45 0 -25 -4 -45 -10 -45 -5 0 -10 -15 -10
-32 0 -32 -20 -111 -39 -153 -25 -57 -31 -77 -25 -86 3 -5 -8 -38 -24 -72 -16
-34 -33 -77 -37 -94 -3 -18 -11 -33 -16 -33 -5 0 -9 -7 -9 -16 0 -8 -4 -12
-10 -9 -5 3 -10 -4 -10 -16 0 -19 -36 -97 -51 -109 -4 -3 -10 -20 -14 -37 -3
-18 -11 -35 -16 -39 -5 -3 -20 -26 -33 -52 -13 -26 -34 -58 -45 -72 -12 -13
-32 -40 -43 -60 -12 -19 -25 -37 -28 -40 -4 -3 -20 -23 -36 -45 -60 -83 -170
-203 -267 -293 -37 -35 -91 -85 -120 -113 -28 -27 -54 -49 -58 -49 -5 0 -60
-39 -96 -70 -7 -5 -17 -10 -23 -10 -6 0 -13 -7 -16 -15 -4 -8 -14 -15 -24 -15
-10 0 -20 -7 -24 -15 -3 -8 -12 -15 -21 -15 -8 0 -15 -4 -15 -10 0 -5 -7 -10
-15 -10 -9 0 -18 -7 -21 -15 -4 -8 -10 -13 -14 -10 -5 3 -11 1 -15 -5 -3 -5
-13 -10 -21 -10 -8 0 -23 -9 -35 -21 -11 -11 -27 -18 -35 -15 -8 3 -13 2 -10
-3 5 -7 -12 -20 -34 -26 -3 0 -20 -9 -37 -18 -18 -10 -33 -14 -33 -10 0 5 -4
4 -8 -2 -14 -19 -122 -65 -138 -58 -10 4 -15 2 -11 -4 5 -8 -93 -47 -113 -45
-3 0 -9 -3 -15 -8 -10 -8 -156 -51 -185 -55 -8 -1 -22 -4 -30 -8 -27 -11 -233
-46 -330 -57 -122 -12 -517 -13 -589 0 -179 31 -331 64 -426 94 -5 1 -37 11
-70 21 -33 9 -66 22 -72 27 -7 6 -13 7 -13 3 0 -4 -6 -3 -12 2 -7 6 -30 16
-52 23 -69 22 -329 161 -441 236 -129 86 -337 256 -415 340 -118 128 -139 152
-213 254 -43 58 -81 110 -85 115 -10 12 -102 178 -122 220 -8 17 -17 32 -20
35 -6 6 -43 83 -44 92 -1 3 -4 10 -8 14 -5 4 -8 16 -8 26 0 10 -4 18 -10 18
-5 0 -10 6 -10 13 0 7 -9 32 -20 55 -11 22 -20 48 -20 56 0 8 -4 16 -8 18 -7
3 -17 33 -53 158 -60 208 -89 439 -89 699 1 219 9 309 50 526 7 33 13 67 14
75 2 8 6 22 9 30 3 8 16 47 28 85 37 122 49 156 65 187 8 16 13 32 10 35 -2 3
0 10 5 17 5 6 36 65 68 131 32 66 72 142 89 169 17 27 29 53 26 57 -3 5 -1 9
5 9 5 0 43 48 84 108 132 190 320 391 497 533 109 86 206 148 388 244 74 40
83 49 57 59 -8 3 -15 1 -15 -4 0 -5 -12 -16 -28 -24 -23 -12 -33 -12 -65 -1
-44 15 -58 25 -34 25 9 0 19 -5 22 -11 4 -5 23 -8 43 -6 34 3 37 6 34 33 -3
23 -1 27 9 17 7 -7 19 -13 27 -13 12 0 12 3 1 18 -13 15 -12 16 3 3 10 -7 16
-17 13 -21 -3 -4 2 -14 11 -21 13 -10 17 -10 25 2 5 8 9 11 9 7 0 -4 21 2 48
13 48 21 269 108 287 113 6 2 24 6 40 10 17 4 37 10 45 14 8 3 22 7 30 8 50 8
176 39 180 44 6 8 206 30 295 33 120 4 490 -6 495 -13z m-1133 -96 c-3 -3 -12
-4 -19 -1 -8 3 -5 6 6 6 11 1 17 -2 13 -5z m-391 -141 c-3 -4 -6 0 -6 8 0 12
-2 11 -11 -1 -9 -13 -10 -12 -5 2 3 10 1 20 -4 23 -6 4 -10 11 -10 17 0 6 10
-1 21 -16 12 -15 19 -30 15 -33z m3441 -1245 c-3 -7 -5 -2 -5 12 0 14 2 19 5
13 2 -7 2 -19 0 -25z m-1683 -1100 c-3 -4 -9 -8 -15 -8 -5 0 -9 4 -9 8 0 5 7
9 15 9 8 0 12 -4 9 -9z m-164 -67 c0 -12 -11 -23 -30 -30 -18 -6 -28 -6 -25
-1 4 6 13 10 21 10 8 0 13 3 13 8 -3 18 2 32 11 32 6 0 10 -9 10 -19z m-275
-91 c3 -5 12 -7 20 -3 8 3 15 0 15 -5 0 -21 -18 -21 -40 -2 -13 11 -18 20 -12
20 6 0 13 -4 17 -10z m-67 -47 c-16 -2 -28 -8 -28 -13 0 -5 -6 -7 -14 -4 -8 3
-17 1 -21 -5 -3 -6 -21 -10 -38 -10 -30 2 -31 2 -4 6 15 2 27 8 27 13 0 9 37
17 80 17 23 0 22 0 -2 -4z m-208 -38 c0 -8 -7 -15 -15 -15 -8 0 -15 7 -15 15
0 8 7 15 15 15 8 0 15 -7 15 -15z"/>
<path d="M5693 6153 c9 -2 23 -2 30 0 6 3 -1 5 -18 5 -16 0 -22 -2 -12 -5z"/>
<path d="M5750 6145 c0 -3 13 -11 30 -20 19 -10 27 -20 24 -30 -4 -10 1 -16
17 -17 13 -1 -5 -4 -41 -7 -43 -4 -72 -2 -85 6 -11 7 -47 15 -80 18 l-60 5 55
-16 c30 -8 60 -17 65 -18 6 -1 30 -12 54 -24 25 -12 53 -22 62 -22 10 0 21 -4
24 -10 3 -5 20 -10 37 -10 29 0 30 2 24 32 -8 38 -58 93 -98 107 -15 5 -28 8
-28 6z"/>
<path d="M2880 6120 c0 -5 5 -10 11 -10 5 0 7 5 4 10 -3 6 -8 10 -11 10 -2 0
-4 -4 -4 -10z"/>
<path d="M2832 5999 c-7 -28 -9 -56 -5 -61 3 -6 1 -8 -5 -4 -14 9 -19 0 -27
-60 l-7 -51 44 -22 c25 -11 58 -20 74 -20 16 1 22 3 13 6 -14 3 -14 11 -3 65
7 34 11 65 8 70 -3 4 0 8 5 8 6 0 11 13 11 29 0 30 -14 41 -53 41 -20 1 -20 2
-5 13 15 12 15 14 -3 25 -30 19 -35 15 -47 -39z"/>
<path d="M3334 5919 c-62 -49 -115 -66 -138 -44 -15 15 -16 14 -16 -15 0 -42
35 -90 65 -90 35 0 55 10 55 28 0 8 3 12 6 9 11 -11 63 63 70 100 3 18 4 36 2
39 -3 2 -22 -10 -44 -27z"/>
<path d="M6139 5813 c-13 -16 -12 -17 4 -4 9 7 17 15 17 17 0 8 -8 3 -21 -13z"/>
<path d="M5550 5792 c0 -17 -32 -52 -47 -52 -7 0 -13 -3 -13 -8 0 -9 -47 -33
-108 -56 -59 -22 -158 -22 -170 1 -15 25 -8 -36 6 -63 15 -28 75 -43 139 -34
43 5 50 4 46 -9 -4 -13 -3 -13 5 -2 5 7 14 11 20 7 6 -3 21 -1 34 4 22 10 22
10 -5 7 -15 -3 -30 1 -34 7 -3 6 -3 8 1 4 4 -3 29 5 56 18 57 28 72 30 63 7
-6 -15 -5 -16 9 -3 14 13 14 16 -1 28 -14 12 -14 12 5 7 23 -6 40 17 27 37 -4
7 -1 8 6 3 22 -13 5 65 -18 89 -12 11 -21 15 -21 8z"/>
<path d="M3040 5762 c0 -13 38 -23 46 -11 3 5 1 9 -5 9 -5 0 -16 3 -25 6 -9 3
-16 2 -16 -4z"/>
<path d="M3230 5616 c0 -2 8 -10 18 -17 15 -13 16 -12 3 4 -13 16 -21 21 -21
13z"/>
<path d="M4956 5576 c3 -8 -1 -25 -10 -38 -24 -34 -21 -56 4 -33 21 19 27 69
10 80 -5 3 -7 0 -4 -9z"/>
<path d="M4777 5488 c-7 -4 20 -7 58 -7 73 1 71 6 -3 11 -24 2 -48 0 -55 -4z"/>
<path d="M4760 5208 c-41 -10 -80 -53 -80 -86 0 -31 26 -79 49 -92 26 -13 117
-13 144 1 38 20 77 62 77 84 0 67 -101 116 -190 93z m28 -93 c-2 -1 -25 -5
-51 -8 -38 -5 -46 -3 -38 6 6 8 26 11 51 9 23 -2 40 -5 38 -7z m72 1 c0 -2
-13 -6 -30 -8 -16 -3 -30 -1 -30 4 0 4 14 8 30 8 17 0 30 -2 30 -4z"/>
<path d="M5360 5110 c0 -5 9 -10 20 -10 11 0 20 5 20 10 0 6 -9 10 -20 10 -11
0 -20 -4 -20 -10z"/>
<path d="M4120 5080 c0 -5 5 -10 11 -10 5 0 7 5 4 10 -3 6 -8 10 -11 10 -2 0
-4 -4 -4 -10z"/>
<path d="M5205 5045 l-30 -15 35 7 c19 3 44 6 55 5 16 -1 17 1 5 8 -20 13 -29
12 -65 -5z"/>
<path d="M4148 5036 c-16 -12 -16 -15 7 -36 14 -13 25 -18 25 -12 0 6 -8 15
-17 21 -14 8 -15 12 -4 25 16 19 12 20 -11 2z"/>
<path d="M5121 5021 c-9 -6 -10 -11 -2 -15 6 -4 11 -3 11 3 0 5 8 12 18 14 12
3 13 5 2 6 -8 0 -21 -3 -29 -8z"/>
<path d="M2748 5004 c-12 -11 -9 -87 3 -125 24 -72 78 -97 142 -68 32 15 85
105 90 154 3 22 2 30 0 18 -5 -27 -7 -27 -34 -10 -17 10 -22 9 -30 -6 -8 -14
-21 -18 -49 -16 -22 2 -42 0 -46 -4 -4 -4 -20 -7 -35 -7 -25 0 -28 4 -31 36
-2 20 -6 32 -10 28z"/>
<path d="M5370 4980 c0 -5 5 -10 10 -10 6 0 10 5 10 10 0 6 -4 10 -10 10 -5 0
-10 -4 -10 -10z"/>
<path d="M4283 4935 c0 -8 4 -12 9 -9 5 3 6 10 3 15 -9 13 -12 11 -12 -6z"/>
<path d="M4366 4891 c-4 -5 1 -8 9 -7 21 3 31 16 12 16 -9 0 -18 -4 -21 -9z"/>
<path d="M6300 3000 c-8 -5 -11 -12 -7 -17 5 -4 11 -3 15 2 4 6 16 12 27 13
30 6 32 12 4 12 -13 0 -31 -4 -39 -10z"/>
<path d="M6261 2964 c0 -11 3 -14 6 -6 3 7 2 16 -1 19 -3 4 -6 -2 -5 -13z"/>
<path d="M9210 7462 c0 -38 4 -62 11 -62 7 0 8 19 3 58 -9 77 -14 78 -14 4z"/>
<path d="M9216 7013 c-8 -30 -3 -343 6 -343 4 0 8 81 8 180 0 99 -2 180 -4
180 -3 0 -7 -8 -10 -17z"/>
<path d="M1023 6890 c0 -41 2 -58 4 -37 2 20 2 54 0 75 -2 20 -4 3 -4 -38z"/>
<path d="M1023 6740 c0 -36 2 -50 4 -32 2 17 2 47 0 65 -2 17 -4 3 -4 -33z"/>
<path d="M9213 6375 c0 -38 2 -53 4 -32 2 20 2 52 0 70 -2 17 -4 1 -4 -38z"/>
<path d="M9207 4416 c-2 -1029 -6 -1887 -10 -1906 -4 -19 -9 -44 -10 -55 -2
-11 -6 -27 -10 -35 -3 -8 -8 -33 -12 -55 -7 -42 -9 -50 -51 -190 -28 -91 -83
-217 -129 -290 -13 -22 -27 -48 -31 -57 -3 -10 -10 -18 -15 -18 -5 0 -9 -6 -9
-12 0 -7 -24 -45 -53 -83 -100 -135 -176 -211 -312 -313 -38 -29 -75 -57 -82
-62 -7 -6 -17 -10 -23 -10 -5 0 -10 -4 -10 -10 0 -5 -9 -10 -20 -10 -11 0 -20
-3 -20 -8 0 -4 -17 -16 -37 -27 -21 -11 -41 -24 -44 -28 -3 -5 -9 -8 -13 -8
-3 1 -20 -6 -37 -15 -17 -8 -38 -17 -47 -19 -10 -2 -51 -16 -92 -31 -65 -23
-98 -33 -205 -59 -11 -3 -51 -10 -90 -16 -38 -6 -78 -15 -87 -20 -11 -5 -1042
-9 -2628 -9 -2758 0 -2623 -2 -2800 41 -25 6 -56 13 -69 15 -13 3 -32 9 -41
14 -10 5 -20 7 -22 4 -3 -2 -26 4 -52 15 -25 11 -46 18 -46 16 0 -11 -259 114
-305 148 -198 146 -342 283 -425 407 -8 12 -23 33 -32 45 -10 13 -18 28 -18
34 0 6 -4 11 -9 11 -5 0 -14 15 -22 33 -7 17 -16 34 -20 37 -15 11 -89 174
-118 262 -39 117 -56 183 -87 333 l-24 120 -1 1355 c-1 745 -5 1447 -9 1560
-5 152 -7 176 -8 93 -2 -106 -3 -113 -22 -113 -21 0 -24 -16 -10 -60 l8 -25 1
25 c1 20 3 22 11 10 5 -8 10 -62 10 -120 0 -62 -4 -99 -9 -91 -6 9 -11 -2 -15
-33 -4 -25 -13 -46 -19 -46 -8 0 -7 -3 2 -9 12 -8 -61 -16 -211 -24 -25 -2
-42 -17 -18 -17 6 0 10 -32 10 -75 0 -43 -4 -75 -10 -75 -6 0 -10 -40 -10
-100 l0 -100 78 0 c42 0 107 -3 145 -7 l67 -6 -1 -161 c-1 -151 -2 -158 -14
-111 -14 57 -17 52 -15 -21 1 -50 1 -51 -31 -58 -17 -3 -78 -6 -135 -6 l-104
0 0 -175 0 -175 -155 0 -155 0 0 -165 c0 -91 -1 -168 -2 -172 -2 -5 68 -9 155
-11 l157 -3 0 176 0 175 104 -1 c70 0 106 -5 109 -12 2 -7 0 -37 -5 -67 -19
-118 -28 -187 -27 -232 l0 -48 -91 0 -90 0 0 -166 c0 -130 3 -169 14 -180 9
-9 16 -10 18 -3 2 7 17 8 41 4 l37 -7 0 -144 c0 -99 -3 -144 -11 -144 -6 0 -9
-9 -6 -19 5 -21 -16 -31 -65 -31 l-28 0 0 174 0 174 -93 6 c-50 3 -120 5 -155
4 l-63 -3 -3 -75 c-2 -41 -4 -121 -5 -177 l-1 -103 -165 0 -165 0 0 180 0 180
128 0 c70 0 144 3 165 6 l37 7 0 158 0 159 -165 0 -165 0 0 -165 0 -165 -40 0
-40 0 0 -180 0 -180 40 0 40 0 0 -175 0 -175 -40 0 -40 0 0 -1320 0 -1320
5120 0 5120 0 0 1320 0 1320 -50 0 -50 0 0 165 c0 91 0 168 0 173 0 4 22 8 50
10 l50 3 0 180 0 179 -55 0 -55 0 0 -180 0 -180 -180 0 -180 0 0 175 0 174
-32 6 c-18 3 -46 5 -63 4 -16 -2 -67 -2 -112 -1 l-83 2 0 170 0 170 -57 1
c-32 0 -52 3 -45 6 21 8 16 172 -8 228 -11 26 -20 54 -20 63 0 8 -7 24 -17 34
-15 17 -13 18 48 20 35 0 71 1 79 2 13 1 15 28 15 181 l0 180 -58 3 c-41 2
-56 6 -50 15 4 8 1 7 -10 -1 -9 -8 -20 -11 -25 -8 -5 3 -9 69 -10 147 -2 83
-7 148 -13 155 -6 7 -8 22 -4 34 5 15 2 20 -13 20 -17 0 -19 7 -16 78 2 48 0
66 -4 47 -6 -21 -10 12 -15 104 -4 74 -5 137 -2 140 4 3 53 7 111 9 l104 4 -1
107 c-1 73 -4 95 -9 71 -6 -28 -8 -21 -9 38 0 42 3 72 9 72 6 0 10 13 10 28 0
26 -3 28 -42 30 -24 1 -78 5 -121 8 l-77 6 2 187 3 186 56 3 c49 3 58 6 63 25
9 35 7 85 -4 92 -5 3 -10 22 -10 41 0 27 -4 34 -20 34 -13 0 -20 7 -20 20 0
12 7 20 16 20 11 0 14 5 10 16 -3 9 -6 18 -6 20 0 2 -9 4 -21 4 -16 0 -19 4
-14 18 27 62 13 96 -43 104 l-32 5 -3 -1871z m230 1068 c-3 -3 -12 -4 -19 -1
-8 3 -5 6 6 6 11 1 17 -2 13 -5z m-8417 -309 c0 -19 -4 -35 -10 -35 -11 0 -14
53 -3 63 11 12 13 8 13 -28z m8217 -147 c-2 -18 -4 -4 -4 32 0 36 2 50 4 33 2
-18 2 -48 0 -65z m10 -195 c-2 -21 -4 -4 -4 37 0 41 2 58 4 38 2 -21 2 -55 0
-75z m228 -1667 l0 -174 -23 3 c-12 1 -26 6 -30 10 -4 4 4 5 16 2 23 -5 24 -4
18 41 -3 26 -9 98 -12 161 -5 91 -4 115 7 122 8 5 16 9 19 9 3 0 5 -78 5 -174z
m-8777 -182 l30 -6 2 -169 1 -169 -154 0 -154 0 -5 163 c-3 99 -2 167 5 175
10 13 216 18 275 6z m9072 -169 l0 -175 -135 0 c-128 0 -135 1 -135 20 0 11 5
20 10 20 6 0 10 27 10 60 0 47 -3 60 -15 60 -10 0 -15 10 -15 29 0 15 -3 55
-6 89 l-7 61 64 4 c35 2 101 4 147 5 l82 2 0 -175z m-9365 -195 c-3 -5 -17
-10 -30 -10 -18 0 -23 -4 -19 -15 4 -10 0 -15 -15 -15 -12 0 -21 -4 -21 -10 0
-6 -33 -10 -80 -10 -79 0 -80 0 -80 25 0 21 -5 25 -27 25 -16 0 -35 5 -43 10
-10 6 41 10 153 10 110 0 166 -3 162 -10z m9465 4 c-38 -8 -90 -9 -90 -2 0 4
24 7 53 7 28 -1 45 -3 37 -5z m238 -1 c-10 -2 -26 -2 -35 0 -10 3 -2 5 17 5
19 0 27 -2 18 -5z"/>
<path d="M230 2602 c0 -4 16 -7 35 -8 19 0 35 3 35 8 0 4 -16 8 -35 8 -19 0
-35 -3 -35 -8z"/>
<path d="M1017 6137 c-3 -73 -10 -143 -15 -157 -7 -18 -9 -8 -5 38 4 43 2 62
-6 62 -6 0 -11 -17 -11 -40 0 -22 -4 -40 -10 -40 -5 0 -10 -9 -10 -20 0 -13
-7 -20 -20 -20 -13 0 -20 -7 -20 -20 0 -11 7 -20 15 -20 8 0 15 -4 15 -10 0
-5 -7 -10 -17 -10 -33 0 -1 -14 47 -20 l49 -6 5 35 c6 38 0 350 -7 357 -2 2
-7 -56 -10 -129z"/>
<path d="M993 5348 c0 -38 4 -68 8 -68 11 0 10 62 -1 105 -5 22 -7 12 -7 -37z"/>
<path d="M688 4743 c6 -2 18 -2 25 0 6 3 1 5 -13 5 -14 0 -19 -2 -12 -5z"/>
<path d="M695 4680 l-7 -40 -64 0 -64 0 0 -39 0 -39 -65 -4 -64 -3 -4 45 c-2
25 -4 -12 -5 -82 l-2 -128 149 0 c96 0 152 4 156 11 10 14 -6 319 -15 319 -5
0 -11 -18 -15 -40z"/>
<path d="M990 4669 c0 -31 4 -48 10 -44 6 3 10 26 10 51 0 24 -4 44 -10 44 -5
0 -10 -23 -10 -51z"/>
<path d="M9788 4414 c-3 -5 -7 -88 -9 -184 l-4 -175 178 -3 177 -2 0 180 0
180 -57 0 c-32 0 -108 3 -169 6 -62 4 -113 3 -116 -2z"/>
<path d="M80 4215 l0 -175 -40 0 -40 0 0 -175 0 -175 40 0 40 0 0 175 0 175
165 0 165 0 0 175 0 175 -165 0 -165 0 0 -175z"/>
<path d="M9477 3983 c-9 -86 -9 -256 -1 -277 5 -14 28 -16 150 -16 l144 0 2
-166 3 -166 172 -1 c94 -1 174 0 177 3 3 3 6 79 8 168 l3 162 52 0 53 0 0 175
0 175 -50 0 -50 0 0 -170 0 -170 -182 2 -183 3 -3 173 -2 172 -144 0 -143 0
-6 -67z"/>
<path d="M1383 3060 c0 -36 2 -50 4 -32 2 17 2 47 0 65 -2 17 -4 3 -4 -33z"/>
<path d="M1383 2780 c0 -36 2 -50 4 -32 2 17 2 47 0 65 -2 17 -4 3 -4 -33z"/>
<path d="M8847 2623 c-4 -38 -9 -86 -12 -108 -5 -37 -4 -38 5 -10 11 34 26
185 18 185 -3 0 -8 -30 -11 -67z"/>
<path d="M1401 2574 c0 -11 3 -14 6 -6 3 7 2 16 -1 19 -3 4 -6 -2 -5 -13z"/>
<path d="M1412 2525 c0 -16 2 -22 5 -12 2 9 2 23 0 30 -3 6 -5 -1 -5 -18z"/>
<path d="M1417 2483 c-4 -3 -7 -11 -7 -17 0 -6 5 -5 12 2 6 6 9 14 7 17 -3 3
-9 2 -12 -2z"/>
<path d="M1435 2391 c7 -28 29 -84 49 -126 20 -42 36 -79 36 -83 1 -10 40 -58
40 -49 0 5 -18 42 -40 84 -22 42 -42 91 -46 109 -3 19 -10 34 -15 34 -5 0 -8
3 -7 8 3 9 -19 72 -26 72 -2 0 2 -22 9 -49z"/>
<path d="M8807 2413 c-2 -5 -10 -26 -17 -48 -20 -64 -64 -160 -115 -253 -57
-103 -209 -275 -320 -362 -22 -18 -42 -35 -45 -38 -8 -11 -42 -31 -72 -45 -16
-6 -28 -15 -28 -19 0 -4 -6 -8 -12 -8 -16 0 -122 -53 -126 -62 -2 -5 -12 -8
-23 -8 -10 0 -19 -4 -19 -10 0 -5 -13 -10 -29 -10 -16 0 -36 -6 -43 -14 -8 -7
-34 -17 -59 -21 -24 -4 -46 -11 -49 -15 -3 -4 -39 -10 -80 -14 -41 -4 -93 -11
-115 -16 -54 -13 -5018 -13 -5059 -1 -35 11 -159 32 -193 33 -13 0 -23 4 -23
9 0 5 -12 9 -27 9 -16 0 -41 7 -56 15 -15 8 -43 17 -62 21 -19 3 -35 10 -35
15 0 5 -9 9 -20 9 -11 0 -20 5 -20 12 0 6 -3 8 -6 5 -4 -4 -19 2 -34 13 -16
11 -31 20 -34 20 -4 0 -36 18 -72 40 -36 22 -71 37 -77 33 -6 -3 -7 -1 -3 5 4
7 2 12 -4 12 -17 0 -139 116 -214 204 -22 27 -46 54 -51 60 -32 34 -64 84 -58
89 3 4 -1 7 -9 7 -9 0 -18 10 -21 22 -4 12 -9 19 -13 15 -9 -8 104 -174 161
-237 127 -140 218 -208 430 -320 46 -25 96 -43 120 -44 6 -1 12 -4 15 -7 7 -8
83 -28 149 -40 30 -5 59 -13 65 -17 6 -3 19 -5 28 -4 9 2 36 -3 60 -11 36 -11
435 -14 2478 -14 1339 0 2390 3 2335 7 -86 5 -70 7 115 10 118 2 221 3 228 3
6 -1 12 3 12 8 0 5 11 9 25 9 22 0 93 20 140 39 11 5 47 17 79 27 33 11 64 24
71 29 18 17 54 35 68 35 14 0 169 91 192 113 7 6 37 32 66 57 84 71 113 100
173 174 105 129 214 334 235 444 8 40 7 51 -2 35z m-1524 -980 c-7 -2 -21 -2
-30 0 -10 3 -4 5 12 5 17 0 24 -2 18 -5z"/>
<path d="M8248 1283 c7 -3 16 -2 19 1 4 3 -2 6 -13 5 -11 0 -14 -3 -6 -6z"/>
<path d="M8195 1270 c-3 -5 -1 -10 4 -10 6 0 11 5 11 10 0 6 -2 10 -4 10 -3 0
-8 -4 -11 -10z"/>
<path d="M8050 1213 c-13 -15 -12 -16 4 -10 10 4 20 7 22 7 2 0 4 5 4 10 0 15
-13 12 -30 -7z"/>
<path d="M2276 1192 c-3 -5 1 -9 9 -9 8 0 12 4 9 9 -3 4 -7 8 -9 8 -2 0 -6 -4
-9 -8z"/>
<path d="M7944 1191 c-11 -12 -1 -17 26 -13 36 5 40 23 4 20 -14 -2 -27 -4
-30 -7z"/>
<path d="M7891 1166 c-9 -11 -6 -12 14 -8 14 2 25 8 25 13 0 14 -26 11 -39 -5z"/>
<path d="M7741 1143 c-13 -14 -8 -15 45 -8 32 4 66 11 74 16 14 9 -18 7 -75
-4 -11 -2 -22 -1 -25 3 -3 4 -11 1 -19 -7z"/>
<path d="M2613 1123 c31 -2 83 -2 115 0 31 2 5 3 -58 3 -63 0 -89 -1 -57 -3z"/>
<path d="M7653 1123 c15 -2 37 -2 50 0 12 2 0 4 -28 4 -27 0 -38 -2 -22 -4z"/>
</g>
</svg>
